<svg width="34" height="34" viewBox="0 0 34 34" fill="none" xmlns="http://www.w3.org/2000/svg">
<path d="M16.9997 33.4184C13.7019 33.4203 10.4777 32.4439 7.73507 30.6126C4.99246 28.7814 2.85474 26.1777 1.59247 23.1311C0.330206 20.0844 0.000133693 16.7318 0.64403 13.4975C1.28793 10.2632 2.87685 7.29261 5.2097 4.9617C8.3366 1.8348 12.5776 0.078125 16.9997 0.078125C21.4218 0.078125 25.6628 1.8348 28.7897 4.9617C31.9166 8.0886 33.6733 12.3296 33.6733 16.7517C33.6733 21.1738 31.9166 25.4148 28.7897 28.5417C27.2446 30.0938 25.407 31.324 23.3832 32.1611C21.3594 32.9981 19.1897 33.4255 16.9997 33.4184ZM3.66636 17.0384C3.70424 20.562 5.13544 23.9273 7.64715 26.3988C10.1589 28.8704 13.5468 30.2471 17.0706 30.2282C20.5943 30.2092 23.9673 28.7961 26.4523 26.2977C28.9373 23.7994 30.3323 20.4188 30.3323 16.895C30.3323 13.3712 28.9373 9.99071 26.4523 7.49232C23.9673 4.99392 20.5943 3.58084 17.0706 3.56189C13.5468 3.54295 10.1589 4.9197 7.64715 7.39124C5.13544 9.86277 3.70424 13.2281 3.66636 16.7517V17.0384ZM12.6814 23.4184L10.3314 21.0684L14.6497 16.7517L10.333 12.435L12.683 10.085L16.9997 14.4017L21.3164 10.085L23.6664 12.435L19.3497 16.7517L23.6664 21.0684L21.3197 23.4184L16.9997 19.1017L12.683 23.4184H12.6814Z" fill="#FE5050"/>
</svg>
